<svg xmlns="http://www.w3.org/2000/svg" width="860" height="500" viewBox="0 0 860 500">
<style>text{font-family:Arial,sans-serif;fill:#111} .axis{stroke:#111;stroke-width:1} .bar{fill:#666} .pt{fill:#555;opacity:.65}</style>
<text x="430.0" y="26" text-anchor="middle" font-size="16" font-weight="bold">Top 10 campaigns by recorded link clicks</text>
<line class="axis" x1="300" y1="55" x2="300" y2="450"/>
<line class="axis" x1="300" y1="450" x2="825" y2="450"/>
<text x="290" y="79.8" text-anchor="end" font-size="10">Bunda Youtube  official</text><rect class="bar" x="300" y="60.0" width="525.0" height="31.5"/><text x="831.0" y="79.8" font-size="10">480,589</text>
<text x="290" y="119.2" text-anchor="end" font-size="10">Bunda Youtube</text><rect class="bar" x="300" y="99.5" width="93.0" height="31.5"/><text x="399.0" y="119.2" font-size="10">85,175</text>
<text x="290" y="158.8" text-anchor="end" font-size="10">Post: &quot;Feel the beats, feel the &#x27;Pr...</text><rect class="bar" x="300" y="139.0" width="36.5" height="31.5"/><text x="342.5" y="158.8" font-size="10">33,414</text>
<text x="290" y="198.2" text-anchor="end" font-size="10">DJ Khoded Valid Concert II</text><rect class="bar" x="300" y="178.5" width="9.0" height="31.5"/><text x="315.0" y="198.2" font-size="10">8,213</text>
<text x="290" y="237.8" text-anchor="end" font-size="10">Post: &quot;Feel the emotions as I lay m...</text><rect class="bar" x="300" y="218.0" width="2.8" height="31.5"/><text x="308.8" y="237.8" font-size="10">2,587</text>
<text x="290" y="277.2" text-anchor="end" font-size="10">Instagram post: Feel the beats, fee...</text><rect class="bar" x="300" y="257.5" width="2.4" height="31.5"/><text x="308.4" y="277.2" font-size="10">2,214</text>
<text x="290" y="316.8" text-anchor="end" font-size="10">Instagram post: What&#x27;s the craziest...</text><rect class="bar" x="300" y="297.0" width="2.0" height="31.5"/><text x="308.0" y="316.8" font-size="10">1,870</text>
<text x="290" y="356.2" text-anchor="end" font-size="10">Instagram post: Feel the emotions a...</text><rect class="bar" x="300" y="336.5" width="1.7" height="31.5"/><text x="307.7" y="356.2" font-size="10">1,548</text>
<text x="290" y="395.8" text-anchor="end" font-size="10">Instagram post: Bunda Baddie  @ceeb...</text><rect class="bar" x="300" y="376.0" width="1.6" height="31.5"/><text x="307.6" y="395.8" font-size="10">1,500</text>
<text x="290" y="435.2" text-anchor="end" font-size="10">Instagram post:  It&#x27;s here! The off...</text><rect class="bar" x="300" y="415.5" width="1.6" height="31.5"/><text x="307.6" y="435.2" font-size="10">1,481</text>
<text x="562.5" y="485" text-anchor="middle" font-size="12">Link clicks</text>
</svg>